<svg xmlns="http://www.w3.org/2000/svg" width="1440" height="400" viewBox="0 0 1440 400" preserveAspectRatio="xMidYMid slice">
  <defs>
    <linearGradient id="bgGradient" x1="0%" y1="0%" x2="100%" y2="100%">
      <stop offset="0%" style="stop-color:#005073; stop-opacity:1" />
      <stop offset="100%" style="stop-color:#70e1f5; stop-opacity:1" />
    </linearGradient>
    <pattern id="grid" width="100" height="100" patternUnits="userSpaceOnUse">
      <rect width="100" height="100" fill="none" />
      <path d="M100 0 L0 0 0 100" fill="none" stroke="#ffffff" stroke-width="0.5" opacity="0.2"/>
    </pattern>
    <g id="network">
      <circle cx="0" cy="0" r="5" fill="#ffffff" />
      <circle cx="100" cy="0" r="5" fill="#ffffff" />
      <circle cx="50" cy="86.6" r="5" fill="#ffffff" />
      <line x1="0" y1="0" x2="100" y2="0" stroke="#ffffff" stroke-width="1" opacity="0.3" />
      <line x1="100" y1="0" x2="50" y2="86.6" stroke="#ffffff" stroke-width="1" opacity="0.3" />
      <line x1="50" y1="86.6" x2="0" y2="0" stroke="#ffffff" stroke-width="1" opacity="0.3" />
    </g>
  </defs>
  <rect width="100%" height="100%" fill="url(#bgGradient)" />
  <rect width="100%" height="100%" fill="url(#grid)" />
  
  <!-- Network Layers -->
  <g transform="translate(200,100) scale(1)">
    <use href="#network" />
    <use href="#network" transform="translate(200,0) rotate(60)" />
    <use href="#network" transform="translate(100,173.2) rotate(120)" />
    <use href="#network" transform="translate(300,100) rotate(180)" />
    <use href="#network" transform="translate(200,0) rotate(240)" />
    <use href="#network" transform="translate(100,-73.2) rotate(300)" />
  </g>
  
  <g transform="translate(800,200) scale(1)">
    <use href="#network" />
    <use href="#network" transform="translate(200,0) rotate(60)" />
    <use href="#network" transform="translate(100,173.2) rotate(120)" />
    <use href="#network" transform="translate(300,100) rotate(180)" />
    <use href="#network" transform="translate(200,0) rotate(240)" />
    <use href="#network" transform="translate(100,-73.2) rotate(300)" />
  </g>
  
  <g transform="translate(1200,50) scale(0.8)">
    <use href="#network" />
    <use href="#network" transform="translate(200,0) rotate(60)" />
    <use href="#network" transform="translate(100,173.2) rotate(120)" />
    <use href="#network" transform="translate(300,100) rotate(180)" />
    <use href="#network" transform="translate(200,0) rotate(240)" />
    <use href="#network" transform="translate(100,-73.2) rotate(300)" />
  </g>
  
  <g transform="translate(400,300) scale(1.2)">
    <use href="#network" />
    <use href="#network" transform="translate(200,0) rotate(60)" />
    <use href="#network" transform="translate(100,173.2) rotate(120)" />
    <use href="#network" transform="translate(300,100) rotate(180)" />
    <use href="#network" transform="translate(200,0) rotate(240)" />
    <use href="#network" transform="translate(100,-73.2) rotate(300)" />
  </g>
</svg>